<svg width="224" height="153" viewBox="0 0 224 153" fill="none" xmlns="http://www.w3.org/2000/svg">
<path id="vector 02" d="M28.9985 147.269C31.1843 150.514 34.254 152.355 37.4664 152.35L82.9 152.265C86.4856 152.258 90.0196 151.101 93.2161 148.887L194.483 78.8344C203.79 72.3962 212.132 63.2061 217.809 51.1693C224.181 37.657 224.874 27.8786 222.358 20.9707C219.848 14.0579 213.747 8.98133 202.084 7.94703C191.695 7.0266 181.362 10.7558 172.055 17.1893L137.769 40.907L61.652 1.97371C60.7368 1.13327 59.6735 0.641315 58.5721 0.548728C57.4707 0.456141 56.3712 0.766279 55.3872 1.44708L32.5033 17.2794C28.7897 19.8462 27.8918 26.6024 30.704 30.8155L85.0753 77.3589L49.1537 102.211L23.9728 84.9074C23.1052 84.3111 22.147 84.0013 21.1754 84.003C20.2039 84.0046 19.2462 84.3177 18.3797 84.9169L4.41275 94.5814C0.779173 97.096 -0.177947 103.653 2.47414 107.904L28.9985 147.269Z" fill="white"/>
</svg>
